<svg height="480pt" viewBox="0 0 480 480" width="480pt" xmlns="http://www.w3.org/2000/svg"><path d="m448 64h-16v-32c0-17.671875-14.328125-32-32-32h-320c-17.671875 0-32 14.328125-32 32v32h-16c-17.671875 0-32 14.328125-32 32v272c0 17.671875 14.328125 32 32 32h157.246094l-19.199219 64h-18.046875v16h176v-16h-18.046875l-19.199219-64h157.246094c17.671875 0 32-14.328125 32-32v-272c0-17.671875-14.328125-32-32-32zm-432 32c0-8.835938 7.164062-16 16-16h16v240h16v-288c0-8.835938 7.164062-16 16-16h320c8.835938 0 16 7.164062 16 16v288h16v-240h16c8.835938 0 16 7.164062 16 16v240h-448zm277.246094 368h-106.492188l19.199219-64h68.09375zm170.753906-96c0 8.835938-7.164062 16-16 16h-416c-8.835938 0-16-7.164062-16-16v-16h448zm0 0"/><path d="m80 32h16v16h-16zm0 0"/><path d="m112 32h16v16h-16zm0 0"/><path d="m144 32h16v16h-16zm0 0"/><path d="m344.027344 138.949219 41.363281-9.234375 3.488281 15.617187-41.367187 9.234375zm0 0"/><path d="m322.34375 66.34375 24-24.003906 11.316406 11.316406-24.003906 24zm0 0"/><path d="m356.425781 223.160156 7.15625-14.3125 31.996094 16-7.152344 14.3125zm0 0"/><path d="m306.601562 51.289062c-3.007812-13.449218-16.34375-21.917968-29.792968-18.914062-13.449219 3.003906-21.917969 16.34375-18.914063 29.792969l2.464844 11.039062-100.632813 63.480469-40 8.929688c-24.09375 5.257812-40.828124 27.207031-39.523437 51.835937 1.308594 24.628906 20.269531 44.683594 44.789063 47.363281l13.648437 61.136719c.96875 4.296875 5.234375 7 9.535156 6.046875l33.089844-7.390625c4.3125-.960937 7.035156-5.238281 6.070313-9.554687l-13.039063-58.398438 7.390625-1.648438 118.074219 14.648438 2.398437 10.695312c2.542969 11.386719 12.628906 19.496094 24.296875 19.527344 7.578125.003906 14.75-3.433594 19.492188-9.34375 4.746093-5.910156 6.550781-13.65625 4.90625-21.054687zm-209.457031 150.992188c-4.128906-18.53125 7.53125-36.898438 26.054688-41.050781l33.554687-7.488281 7.492188 33.554687 7.488281 33.550781-8.726563 1.953125-24.800781 5.542969c-18.527343 4.121094-36.890625-7.542969-41.039062-26.0625zm72.800781 88.4375-17.480468 3.90625-11.289063-50.570312.425781-.09375 17.015626-3.800782zm17.894532-71.054688-16-71.710937 92.207031-58.160156 32 143.285156zm140.800781 43.953126c-2.339844.566406-4.804687.171874-6.851563-1.097657-2.042968-1.269531-3.488281-3.308593-4.011718-5.65625l-44.265625-198.191406c-.515625-2.316406-.09375-4.742187 1.179687-6.742187 1.273438-2 3.289063-3.414063 5.605469-3.929688 4.824219-1.078125 9.609375 1.960938 10.6875 6.785156l44.214844 198.183594c1.039062 4.738281-1.867188 9.449219-6.566407 10.648438zm0 0"/></svg>