<?xml version="1.0" encoding="utf-8"?>
<!-- Generator: Adobe Illustrator 19.2.1, SVG Export Plug-In . SVG Version: 6.00 Build 0)  -->
<svg version="1.1" id="Layer_1" xmlns="http://www.w3.org/2000/svg" xmlns:xlink="http://www.w3.org/1999/xlink" x="0px" y="0px"
	 viewBox="0 0 420 224" style="enable-background:new 0 0 420 224;" xml:space="preserve">
<style type="text/css">
	.st0{fill:url(#SVGID_1_);}
	.st1{fill:url(#SVGID_2_);}
	.st2{fill:url(#SVGID_3_);}
	.st3{fill:url(#SVGID_4_);}
	.st4{fill:url(#SVGID_5_);}
	.st5{fill:url(#SVGID_6_);}
</style>
<g>
	<linearGradient id="SVGID_1_" gradientUnits="userSpaceOnUse" x1="-3.5319" y1="5.2564" x2="417.193" y2="229.2792">
		<stop  offset="0" style="stop-color:#FF217C"/>
		<stop  offset="2.377562e-002" style="stop-color:#EB2077"/>
		<stop  offset="9.617543e-002" style="stop-color:#B31C69"/>
		<stop  offset="0.1584" style="stop-color:#8A195F"/>
		<stop  offset="0.2075" style="stop-color:#711858"/>
		<stop  offset="0.2372" style="stop-color:#681756"/>
		<stop  offset="0.3544" style="stop-color:#410E4F"/>
		<stop  offset="0.4754" style="stop-color:#210649"/>
		<stop  offset="0.5764" style="stop-color:#0C0245"/>
		<stop  offset="0.6443" style="stop-color:#050044"/>
		<stop  offset="0.6906" style="stop-color:#080849"/>
		<stop  offset="0.7627" style="stop-color:#101E58"/>
		<stop  offset="0.8515" style="stop-color:#1D4271"/>
		<stop  offset="0.9526" style="stop-color:#307392"/>
		<stop  offset="1" style="stop-color:#398DA4"/>
	</linearGradient>
	<path class="st0" d="M209.7,81.2c-1-3-2.2-5.1-5.1-5.1c-2.8,0-4.1,2.2-5,5.1l-18.7,59.1c-0.1,0.3-0.2,1.1-0.2,1.4
		c0,2.3,1.8,3.8,4,3.8c1.3,0,3.1-1.1,3.6-2.9l4-13.3h24.2l4.1,13.3c0.5,1.7,2.3,2.9,3.7,2.9c2.3,0,4-1.5,4-3.8
		c0-0.4-0.1-1.2-0.2-1.4L209.7,81.2z M194.7,121.9l9.9-32.4l9.9,32.4H194.7z"/>
	<linearGradient id="SVGID_2_" gradientUnits="userSpaceOnUse" x1="7.0937" y1="-14.6914" x2="427.8138" y2="209.3288">
		<stop  offset="0" style="stop-color:#FF217C"/>
		<stop  offset="2.377562e-002" style="stop-color:#EB2077"/>
		<stop  offset="9.617543e-002" style="stop-color:#B31C69"/>
		<stop  offset="0.1584" style="stop-color:#8A195F"/>
		<stop  offset="0.2075" style="stop-color:#711858"/>
		<stop  offset="0.2372" style="stop-color:#681756"/>
		<stop  offset="0.3544" style="stop-color:#410E4F"/>
		<stop  offset="0.4754" style="stop-color:#210649"/>
		<stop  offset="0.5764" style="stop-color:#0C0245"/>
		<stop  offset="0.6443" style="stop-color:#050044"/>
		<stop  offset="0.6906" style="stop-color:#080849"/>
		<stop  offset="0.7627" style="stop-color:#101E58"/>
		<stop  offset="0.8515" style="stop-color:#1D4271"/>
		<stop  offset="0.9526" style="stop-color:#307392"/>
		<stop  offset="1" style="stop-color:#398DA4"/>
	</linearGradient>
	<path class="st1" d="M269.2,137.2h-23.6V79.9c0-2-1.7-3.8-3.8-3.8c-2.1,0-3.8,1.8-3.8,3.8v60.3c0,2.4,2,4.3,4.3,4.3h27
		c2,0,3.6-1.6,3.6-3.7C272.8,138.8,271.1,137.2,269.2,137.2z"/>
	<linearGradient id="SVGID_3_" gradientUnits="userSpaceOnUse" x1="19.5134" y1="-38.0258" x2="440.2393" y2="185.9975">
		<stop  offset="0" style="stop-color:#FF217C"/>
		<stop  offset="2.377562e-002" style="stop-color:#EB2077"/>
		<stop  offset="9.617543e-002" style="stop-color:#B31C69"/>
		<stop  offset="0.1584" style="stop-color:#8A195F"/>
		<stop  offset="0.2075" style="stop-color:#711858"/>
		<stop  offset="0.2372" style="stop-color:#681756"/>
		<stop  offset="0.3544" style="stop-color:#410E4F"/>
		<stop  offset="0.4754" style="stop-color:#210649"/>
		<stop  offset="0.5764" style="stop-color:#0C0245"/>
		<stop  offset="0.6443" style="stop-color:#050044"/>
		<stop  offset="0.6906" style="stop-color:#080849"/>
		<stop  offset="0.7627" style="stop-color:#101E58"/>
		<stop  offset="0.8515" style="stop-color:#1D4271"/>
		<stop  offset="0.9526" style="stop-color:#307392"/>
		<stop  offset="1" style="stop-color:#398DA4"/>
	</linearGradient>
	<path class="st2" d="M299.1,83.1c3.7,0,6.7,1,9.6,3c1.5,1,2.1,1.6,3.4,1.6c2,0,3.4-1.5,3.4-3.4c0-4.5-8.2-8.2-16.9-8.2
		c-14.7,0-21.5,9.7-21.5,24.4V121c0,14.7,6.8,24.4,21.5,24.4c8.7,0,16.9-3.7,16.9-8.2c0-1.8-1.4-3.4-3.4-3.4c-1.3,0-1.8,0.7-3.4,1.6
		c-2.9,2-5.8,3-9.6,3c-10.8,0-14.4-6.7-14.4-17.4v-20.5C284.7,89.8,288.3,83.1,299.1,83.1z"/>
	<linearGradient id="SVGID_4_" gradientUnits="userSpaceOnUse" x1="29.5094" y1="-56.7896" x2="450.2297" y2="167.2308">
		<stop  offset="0" style="stop-color:#FF217C"/>
		<stop  offset="2.377562e-002" style="stop-color:#EB2077"/>
		<stop  offset="9.617543e-002" style="stop-color:#B31C69"/>
		<stop  offset="0.1584" style="stop-color:#8A195F"/>
		<stop  offset="0.2075" style="stop-color:#711858"/>
		<stop  offset="0.2372" style="stop-color:#681756"/>
		<stop  offset="0.3544" style="stop-color:#410E4F"/>
		<stop  offset="0.4754" style="stop-color:#210649"/>
		<stop  offset="0.5764" style="stop-color:#0C0245"/>
		<stop  offset="0.6443" style="stop-color:#050044"/>
		<stop  offset="0.6906" style="stop-color:#080849"/>
		<stop  offset="0.7627" style="stop-color:#101E58"/>
		<stop  offset="0.8515" style="stop-color:#1D4271"/>
		<stop  offset="0.9526" style="stop-color:#307392"/>
		<stop  offset="1" style="stop-color:#398DA4"/>
	</linearGradient>
	<path class="st3" d="M344.1,76.1c-15.8,0-22,11.1-22,24.4V121c0,13.6,7.4,24.5,22,24.5c14.6,0,22-10.9,22-24.5v-20.5
		C366.1,87.2,359.9,76.1,344.1,76.1z M358.4,121c0,10.1-4.5,17-14.4,17c-9.9,0-14.4-7-14.4-17v-20.5c0-10.1,3.8-16.9,14.4-16.9
		c10.5,0,14.4,6.8,14.4,16.9V121z"/>
	<linearGradient id="SVGID_5_" gradientUnits="userSpaceOnUse" x1="40.0633" y1="-76.6222" x2="460.7903" y2="147.4017">
		<stop  offset="0" style="stop-color:#FF217C"/>
		<stop  offset="2.377562e-002" style="stop-color:#EB2077"/>
		<stop  offset="9.617543e-002" style="stop-color:#B31C69"/>
		<stop  offset="0.1584" style="stop-color:#8A195F"/>
		<stop  offset="0.2075" style="stop-color:#711858"/>
		<stop  offset="0.2372" style="stop-color:#681756"/>
		<stop  offset="0.3544" style="stop-color:#410E4F"/>
		<stop  offset="0.4754" style="stop-color:#210649"/>
		<stop  offset="0.5764" style="stop-color:#0C0245"/>
		<stop  offset="0.6443" style="stop-color:#050044"/>
		<stop  offset="0.6906" style="stop-color:#080849"/>
		<stop  offset="0.7627" style="stop-color:#101E58"/>
		<stop  offset="0.8515" style="stop-color:#1D4271"/>
		<stop  offset="0.9526" style="stop-color:#307392"/>
		<stop  offset="1" style="stop-color:#398DA4"/>
	</linearGradient>
	<path class="st4" d="M404.6,114.4c9.1-1.8,14.8-8,14.8-18.2c0-9.5-5.1-19.1-20.9-19.1h-16.7c-2.4,0-4.4,2.1-4.4,4.6v59.8
		c0,2.2,1.7,4,3.7,4c2.1,0,3.9-1.9,3.9-4v-26.6h11l16.9,28.7c0.7,1.1,1.8,1.8,3.2,1.8c1.5,0,4.1-1.6,4.1-3.6c0-0.8-0.2-1.6-0.5-2.2
		L404.6,114.4z M385.1,107.5v-23h13c11.1,0,13.6,6,13.6,11.7c0,7.4-4.6,11.3-13,11.3H385.1z"/>
	<linearGradient id="SVGID_6_" gradientUnits="userSpaceOnUse" x1="-22.2285" y1="40.3719" x2="398.494" y2="264.3934">
		<stop  offset="0" style="stop-color:#FF217C"/>
		<stop  offset="2.377562e-002" style="stop-color:#EB2077"/>
		<stop  offset="9.617543e-002" style="stop-color:#B31C69"/>
		<stop  offset="0.1584" style="stop-color:#8A195F"/>
		<stop  offset="0.2075" style="stop-color:#711858"/>
		<stop  offset="0.2372" style="stop-color:#681756"/>
		<stop  offset="0.3544" style="stop-color:#410E4F"/>
		<stop  offset="0.4754" style="stop-color:#210649"/>
		<stop  offset="0.5764" style="stop-color:#0C0245"/>
		<stop  offset="0.6443" style="stop-color:#050044"/>
		<stop  offset="0.6906" style="stop-color:#080849"/>
		<stop  offset="0.7627" style="stop-color:#101E58"/>
		<stop  offset="0.8515" style="stop-color:#1D4271"/>
		<stop  offset="0.9526" style="stop-color:#307392"/>
		<stop  offset="1" style="stop-color:#398DA4"/>
	</linearGradient>
	<path class="st5" d="M147.2,51.8c4.9-0.3,8.7-4.5,8.4-9.4c-0.3-4.9-4.5-8.7-9.4-8.4c-4.5,0.3-8.1,3.9-8.4,8.3L95.7,52.8L83.3,15.7
		c2.3-1.7,3.8-4.6,3.6-7.7c-0.3-4.9-4.5-8.7-9.4-8.4c-4.9,0.3-8.7,4.5-8.4,9.4c0.1,2.3,1.1,4.3,2.7,5.8L46.7,65L17,72.5
		c-1.7-2.7-4.7-4.4-8.1-4.2c-4.9,0.3-8.7,4.5-8.4,9.4c0.3,4.9,4.5,8.7,9.4,8.4c2.3-0.1,4.3-1.1,5.8-2.7l17.4,8.7l-21.9,43.8
		c-0.8-0.2-1.6-0.2-2.4-0.2c-4.9,0.3-8.7,4.5-8.4,9.4c0.3,4.9,4.5,8.7,9.4,8.4c4.9-0.3,8.7-4.5,8.4-9.4c-0.1-2.1-1-4-2.3-5.4
		l22.1-44.1l31.1,15.6c-0.1,0.6-0.1,1.2-0.1,1.9c0.3,4.9,4.5,8.7,9.4,8.4c0.7,0,1.3-0.2,1.9-0.3l59.2,88.8c-1.3,1.7-2,3.8-1.9,6
		c0.3,4.9,4.5,8.7,9.4,8.4c4.9-0.3,8.7-4.5,8.4-9.4c-0.3-4.8-4.3-8.4-9-8.4l-17.4-52.3c2.6-1.7,4.3-4.7,4.1-8
		c-0.3-4.9-4.5-8.7-9.4-8.4c-0.1,0-0.1,0-0.2,0L97.4,58l41.7-10.4C140.8,50.3,143.8,52,147.2,51.8z M76.7,17.4
		c0.5,0.1,0.9,0.1,1.4,0.1l12.2,36.7l-4.7,1.2c-1.7-2.7-4.7-4.4-8.1-4.2c-4.5,0.3-8.1,3.9-8.4,8.3l-15.4,3.8L76.7,17.4z M35.6,87.2
		l-17.4-8.7c0-0.2,0.1-0.5,0.1-0.7l25.2-6.3L35.6,87.2z M118.6,138.9c-2,1.8-3.3,4.4-3.1,7.3c0.3,4.5,3.9,8.1,8.3,8.4l13.7,41.2
		L85,117c1.3-1.7,2-3.8,1.9-6c-0.3-4.9-4.5-8.7-9.4-8.4c-2.3,0.1-4.3,1.1-5.8,2.6L40.5,89.7l10-19.9l20-5c1.7,2.7,4.7,4.4,8.1,4.2
		c4.5-0.3,8.1-3.9,8.4-8.3l5.2-1.3L118.6,138.9z"/>
</g>
</svg>
